<svg width="258" height="46" viewBox="0 0 258 46" fill="none" xmlns="http://www.w3.org/2000/svg">
<path d="M41.6516 10.2899C45.7412 3.16003 54.7986 0.717156 61.882 4.8336L40.408 42.272C38.3632 45.837 33.8345 47.0584 30.2928 45.0002C26.7511 42.942 25.5377 38.3835 27.5825 34.8185L41.6516 10.2899Z" fill="white"/>
<path d="M20.2303 35.7101C16.1408 42.84 7.08334 45.2828 0 41.1664L21.474 3.72798C23.5188 0.163036 28.0475 -1.0584 31.5891 0.999822C35.1308 3.05804 36.3443 7.61652 34.2995 11.1815L20.2303 35.7101Z" fill="white"/>
<path d="M82.5328 40.6923H88.3886V20.3108L101.67 40.6923H107.526V10.12H101.67V30.5015L88.3886 10.12H82.5328V40.6923Z" fill="white"/>
<path d="M124.097 41.3292C128.51 41.3292 132.541 38.9089 134.281 34.7052L128.51 33.0492C127.661 34.9175 126.006 35.9366 123.757 35.9366C120.639 35.9366 118.814 34.1108 118.39 30.8412H134.472C135.172 22.5188 130.971 17.1262 123.757 17.1262C116.968 17.1262 112.173 22.0092 112.173 29.5249C112.173 36.4037 117.053 41.3292 124.097 41.3292ZM118.538 26.5526C119.132 23.644 120.914 22.1366 124.012 22.1366C126.791 22.1366 128.234 23.4529 128.637 26.5526H118.538Z" fill="white"/>
<path d="M149.574 41.3292C156.448 41.3292 161.201 36.3612 161.201 29.2277C161.201 22.1366 156.49 17.1262 149.574 17.1262C142.785 17.1262 137.99 22.0517 137.99 29.2277C137.99 36.3188 142.657 41.3292 149.574 41.3292ZM144.1 29.2277C144.1 25.2363 145.797 22.5188 149.574 22.5188C153.223 22.5188 155.09 25.1514 155.09 29.2277C155.09 33.1766 153.266 35.9366 149.574 35.9366C145.967 35.9366 144.1 33.3465 144.1 29.2277Z" fill="white"/>
<path d="M165.866 40.6923H178.448C183.625 40.6923 187.422 37.5502 187.422 32.2849C187.422 28.5695 185.407 25.852 182.161 24.4295C184.452 23.1345 185.916 20.608 185.916 17.8055C185.916 13.432 182.33 10.12 177.557 10.12H165.866V40.6923ZM168.327 38.2932V25.7883H178.342C181.97 25.7883 184.813 28.6969 184.813 32.3911C184.813 36.1277 181.715 38.2932 177.642 38.2932H168.327ZM168.327 23.4317V12.4766H177.535C180.845 12.4766 183.349 14.5785 183.349 17.7206C183.349 21.0114 180.739 23.4317 177.535 23.4317H168.327Z" fill="white"/>
<path d="M198.261 41.3292C202.228 41.3292 205.432 39.6945 207.193 36.7009V40.6923H209.421V26.404C209.421 24.7692 209.272 23.0495 208.805 21.8182C207.681 18.8671 204.689 17.1262 200.489 17.1262C195.524 17.1262 192.278 19.4403 191.238 23.6015L193.742 24.3022C194.633 21.0326 196.903 19.4828 200.404 19.4828C205.199 19.4828 206.981 21.7545 206.981 26.404C204.286 26.7437 199.746 27.232 196.394 27.9751C193.063 28.7606 190.368 30.6926 190.368 34.5778C190.368 38.1871 192.978 41.3292 198.261 41.3292ZM192.872 34.5991C192.872 31.7966 195.206 30.5865 197.221 30.0557C200.064 29.3338 204.18 28.9517 206.981 28.6545C206.981 29.6735 206.938 31.1597 206.726 32.3062C206.132 36.4037 203.056 39.0788 198.388 39.0788C194.272 39.0788 192.872 36.7009 192.872 34.5991Z" fill="white"/>
<path d="M231.712 28.7606V40.6923H234.173V28.1449C234.173 22.1578 231.267 17.2323 224.944 17.2323C221.677 17.2323 218.855 18.5062 217.158 21.2025V17.7631H214.93V40.6923H217.391V28.3148C217.391 23.2618 219.64 19.5889 224.626 19.5889C229.421 19.5889 231.712 22.9646 231.712 28.7606Z" fill="white"/>
<path d="M239.669 40.6923H242.13V29.6523L254.202 40.6923H258L245.037 29.2277L256.388 17.7631H252.972L242.13 28.8031V10.12H239.669V40.6923Z" fill="white"/>
</svg>
